<svg width="882" height="214" viewBox="0 0 882 214" fill="none" xmlns="http://www.w3.org/2000/svg">
<g clip-path="url(#clip0_7048_711)">
<path d="M782.398 211.052H781.711L508.833 191.282L173.275 206.717L172.931 206.543L5.49561 104.399L8.07154 103.185L234.754 5.0293H234.926L495.954 20.2902L799.399 11.6192L799.914 12.1395L877.364 104.572L876.505 105.613L782.398 211.052ZM509.005 188.334L781.195 208.104L873.586 104.572L798.197 14.7408L495.954 23.4118L235.269 8.15085L11.8496 104.919L173.962 203.768L509.005 188.334Z" fill="url(#paint0_linear_7048_711)"/>
<path d="M783.599 212.266L781.023 210.531L687.946 149.314L511.58 190.241L513.126 191.282L510.207 190.762V191.975L508.661 190.935L508.146 191.282V190.935L502.65 192.149L505.742 190.415L271.847 150.528L171.385 207.583L172.416 204.635L193.367 137.175L1.37354 104.572L214.661 68.3272L234.41 4.68213L235.784 5.54923L306.364 52.7194L492.69 20.9836L489.942 19.076L494.751 20.1165V19.7696L495.61 20.2899L496.812 19.5962V20.4633L500.761 19.7696L499.044 20.8102L748.395 55.4941H748.566L749.253 55.6675L798.883 11.6189L800.6 13.5265L752.86 55.841H754.405L752.688 56.8815L875.818 103.531L876.504 103.705L877.878 104.225L879.767 104.572L879.252 104.745L879.596 104.919L875.646 105.959L766.426 131.279L783.599 212.266ZM691.209 148.794L779.821 207.063L764.022 131.799L691.209 148.794ZM195.771 137.695L175.678 202.554L267.897 150.008L195.771 137.695ZM497.327 24.2786L510.035 187.813L638.316 116.885L497.327 24.2786ZM275.281 148.794L503.337 187.64L367.156 96.4212L275.281 148.794ZM369.56 95.0338L507.459 187.293L494.751 23.7583L369.56 95.0338ZM640.721 118.446L517.419 186.599L685.198 147.58L640.721 118.446ZM196.458 135.267L271.331 148.1L364.752 94.8604L305.677 55.3207L216.55 70.4082L196.458 135.267ZM643.125 117.058L688.461 146.713L763.679 129.198L753.203 79.0792L723.666 72.6627L643.125 117.058ZM16.1422 104.572L194.053 134.92L213.802 70.9285L16.1422 104.572ZM755.607 79.7729L765.911 128.851L869.635 104.745L755.607 79.7729ZM502.135 24.452L640.721 115.497L719.716 71.969L502.135 24.452ZM755.092 76.9982L859.16 99.7162L751.142 58.7891L755.092 76.9982ZM309.284 54.8004L367.328 93.6465L489.256 24.2786L309.284 54.8004ZM726.757 70.9285L752.516 76.4779L748.738 58.7891L726.757 70.9285ZM527.551 27.4001L722.979 70.0614L745.647 57.5752L731.05 55.4941L527.551 27.4001ZM235.784 8.49736L217.409 67.8069L302.758 53.2397L235.784 8.49736Z" fill="url(#paint1_linear_7048_711)"/>
<path d="M495.953 26.1861C498.324 26.1861 500.246 24.2451 500.246 21.8506C500.246 19.4562 498.324 17.5151 495.953 17.5151C493.582 17.5151 491.66 19.4562 491.66 21.8506C491.66 24.2451 493.582 26.1861 495.953 26.1861Z" fill="white"/>
<path d="M173.619 211.746C177.223 211.746 180.145 208.795 180.145 205.156C180.145 201.516 177.223 198.566 173.619 198.566C170.015 198.566 167.094 201.516 167.094 205.156C167.094 208.795 170.015 211.746 173.619 211.746Z" fill="white"/>
<path d="M781.712 214C784.083 214 786.005 212.059 786.005 209.665C786.005 207.27 784.083 205.329 781.712 205.329C779.341 205.329 777.418 207.27 777.418 209.665C777.418 212.059 779.341 214 781.712 214Z" fill="white"/>
<path d="M875.475 111.162C879.079 111.162 882.001 108.212 882.001 104.572C882.001 100.933 879.079 97.9822 875.475 97.9822C871.871 97.9822 868.95 100.933 868.95 104.572C868.95 108.212 871.871 111.162 875.475 111.162Z" fill="white"/>
<path d="M798.885 20.9838C803.152 20.9838 806.612 17.4898 806.612 13.1799C806.612 8.8699 803.152 5.37598 798.885 5.37598C794.617 5.37598 791.157 8.8699 791.157 13.1799C791.157 17.4898 794.617 20.9838 798.885 20.9838Z" fill="white"/>
<path d="M509.006 198.739C513.843 198.739 517.764 194.779 517.764 189.895C517.764 185.01 513.843 181.05 509.006 181.05C504.169 181.05 500.248 185.01 500.248 189.895C500.248 194.779 504.169 198.739 509.006 198.739Z" fill="white"/>
<path d="M8.75818 113.417C13.5952 113.417 17.5164 109.457 17.5164 104.572C17.5164 99.6876 13.5952 95.7278 8.75818 95.7278C3.92117 95.7278 0 99.6876 0 104.572C0 109.457 3.92117 113.417 8.75818 113.417Z" fill="white"/>
<path d="M235.098 13.1799C238.702 13.1799 241.624 10.2295 241.624 6.58995C241.624 2.95042 238.702 0 235.098 0C231.494 0 228.572 2.95042 228.572 6.58995C228.572 10.2295 231.494 13.1799 235.098 13.1799Z" fill="white"/>
<path d="M118.493 56.7084C124.504 59.4831 128.968 63.2984 132.231 68.3275C135.494 73.3567 137.04 79.253 137.04 86.0163C137.04 92.7797 135.494 98.676 132.231 103.705C128.968 108.734 124.504 112.55 118.493 115.324C112.483 117.926 105.613 119.313 97.5421 119.313H78.9954V144.632H58.0444V52.7197H97.3704C105.442 52.7197 112.483 53.9337 118.493 56.7084ZM110.765 97.8089C114.028 95.0342 115.745 91.2189 115.745 86.0163C115.745 80.8137 114.028 76.8251 110.765 74.0504C107.502 71.2757 102.694 69.8883 96.34 69.8883H79.1671V101.798H96.34C102.522 101.971 107.331 100.584 110.765 97.8089ZM185.639 124.342H173.103V144.632H152.495V69.0212H186.498C196.801 69.0212 205.044 71.4491 211.055 76.4782C217.065 81.5074 220.157 88.2708 220.157 96.9418C220.157 102.491 218.783 107.174 216.207 111.336C213.631 115.324 209.853 118.619 205.044 120.874L221.702 144.632H199.549L185.639 124.342ZM195.943 88.2708C193.539 86.1898 189.932 85.3227 185.124 85.3227H173.103V108.734H185.124C189.932 108.734 193.539 107.694 195.943 105.786C198.347 103.705 199.549 100.93 199.549 97.1152C199.549 93.1265 198.347 90.1784 195.943 88.2708ZM251.24 140.99C245.057 137.869 239.905 133.013 236.299 126.943C232.693 121.047 230.804 114.284 230.804 106.827C230.804 99.3697 232.693 92.6063 236.299 86.71C239.905 80.6403 245.057 75.7846 251.24 72.663C257.593 69.368 264.806 67.6338 272.706 67.6338C280.605 67.6338 287.818 69.368 294.172 72.663C300.354 75.7846 305.506 80.8137 309.112 86.71C312.718 92.7797 314.607 99.3697 314.607 106.827C314.607 114.284 312.718 121.047 309.112 126.943C305.506 132.84 300.354 137.695 294.172 140.99C287.818 144.285 280.605 146.02 272.706 146.02C264.806 146.02 257.593 144.285 251.24 140.99ZM283.696 126.25C286.959 124.342 289.535 121.567 291.252 118.272C293.141 114.804 294 110.815 294 106.827C294 102.491 293.141 98.676 291.252 95.381C289.535 92.086 286.787 89.3113 283.696 87.4037C276.999 83.5885 268.756 83.5885 262.058 87.4037C258.796 89.3113 256.22 92.086 254.331 95.381C252.442 98.676 251.583 102.665 251.583 106.827C251.583 110.815 252.442 114.631 254.331 118.272C256.048 121.567 258.796 124.342 262.058 126.25C268.584 130.065 276.827 130.065 283.696 126.25ZM329.376 69.0212H364.581C372.995 69.0212 380.551 70.582 386.905 73.5301C393.259 76.4783 398.239 80.9872 401.846 86.71C405.28 92.4329 407.169 99.0228 407.169 106.827C407.169 114.457 405.452 121.047 401.846 126.77C398.411 132.493 393.431 136.828 386.905 139.95C380.551 143.071 372.995 144.632 364.581 144.632H329.376V69.0212ZM363.894 128.331C370.763 128.331 376.258 126.423 380.208 122.781C384.158 119.14 386.218 113.764 386.218 107C386.218 100.237 384.158 94.8607 380.208 91.0455C376.258 87.2303 370.763 85.3227 363.894 85.3227H349.812V128.331H363.894ZM430.353 137.002C424.171 130.932 421.079 122.608 421.079 112.029V69.0212H441.687V111.336C441.687 117.232 442.889 121.567 445.465 124.516C448.041 127.464 451.819 129.024 456.799 129.024C461.607 129.024 465.385 127.464 467.79 124.516C470.366 121.567 471.568 117.058 471.568 111.336V69.0212H491.832V112.029C491.832 122.608 488.741 130.932 482.558 137.002C476.376 143.071 467.618 146.02 456.456 146.02C445.293 146.02 436.535 143.071 430.353 137.002ZM525.834 140.99C519.652 137.869 514.5 133.013 510.894 126.943C507.287 121.047 505.398 114.284 505.398 106.827C505.398 99.3697 507.287 92.6063 510.894 86.71C514.5 80.8137 519.652 75.958 525.834 72.663C532.188 69.368 539.229 67.6338 547.129 67.6338C554.341 67.6338 560.523 68.6744 565.847 70.9288C571.171 73.1833 575.635 76.6517 579.414 81.5074L566.19 93.6468C561.21 87.5771 555.2 84.629 547.987 84.629C541.633 84.629 536.481 86.71 532.36 90.8721C528.238 95.0342 526.178 100.41 526.178 107C526.178 111.336 527.036 115.324 528.925 118.619C530.643 121.914 533.39 124.689 536.653 126.423C540.088 128.331 544.037 129.198 547.987 129.198C555.2 129.198 561.21 126.25 566.19 120.18L579.414 132.319C575.807 137.002 571.171 140.47 565.847 142.725C560.523 144.979 554.341 146.02 547.129 146.02C539.401 146.02 532.188 144.285 525.834 140.99ZM606.375 85.1492H582.848V69.0212H650.509V85.1492H626.982V144.459H606.375V85.1492ZM675.582 61.0439V97.1152H722.635V105.439H675.582V144.459H665.965V52.5463H728.303V60.8705L675.582 61.0439ZM745.991 70.4086H755.264V144.632H745.991V70.4086ZM795.449 78.2124H769.518V70.4086H830.653V78.2124H804.722V144.632H795.449V78.2124ZM744.789 55.1476C743.243 58.4426 744.789 62.4312 748.051 63.8186C751.314 65.3794 755.264 63.8186 756.638 60.5236C758.183 57.2287 756.638 53.24 753.375 51.8526C750.112 50.2919 746.162 51.6792 744.789 55.1476Z" fill="white"/>
</g>
<defs>
<linearGradient id="paint0_linear_7048_711" x1="5.49732" y1="108.111" x2="877.351" y2="108.111" gradientUnits="userSpaceOnUse">
<stop stop-color="white"/>
<stop offset="1" stop-color="white"/>
</linearGradient>
<linearGradient id="paint1_linear_7048_711" x1="1.2899" y1="108.475" x2="879.689" y2="108.475" gradientUnits="userSpaceOnUse">
<stop stop-color="white"/>
<stop offset="1" stop-color="white"/>
</linearGradient>
<clipPath id="clip0_7048_711">
<rect width="882" height="214" fill="white"/>
</clipPath>
</defs>
</svg>
