<svg width="112" height="106" viewBox="0 0 112 106" fill="none" xmlns="http://www.w3.org/2000/svg">
<path d="M18.9108 102.465L107.547 88.2232L109.995 89.5043L108.547 87.103V20.94L109.311 20.2219L108.524 19.9576V19.6129L107.766 19.6991L57.6078 2.65998L57.3493 2.23486L56.9644 2.44168L56.568 2.29806L56.3842 2.75764L2.79659 31.453L2.0153 31.5391L2.08423 31.8379L1.23975 32.286L2.30828 32.8605L17.6412 101.597L16.4061 104.74L18.9108 102.465ZM48.2898 28.0693L69.5456 25.6909L80.6158 44.0743L61.0835 61.8832L39.5002 50.497L48.2898 28.0693ZM37.9836 49.6985L5.90453 32.8145L46.3882 28.2818L37.9836 49.6985ZM57.2229 5.27961L68.5689 24.0881L48.9906 26.2826L57.2229 5.27961ZM71.3954 25.4841L105.192 21.6983L81.8854 42.8909L71.3954 25.4841ZM81.5063 45.5392L105.399 85.1785L62.6575 62.6875L81.5063 45.5392ZM59.7219 63.0552L20.6572 98.5926L38.874 52.0883L59.7219 63.0552ZM21.2317 100.396L61.342 63.9169L105.066 86.9249L21.2317 100.396ZM106.87 84.311L82.7816 44.3731L106.847 22.4853L106.87 84.311ZM103.819 20.1414L70.4245 23.8813L58.9923 4.92343L103.819 20.1414ZM55.4306 5.20493L47.0833 26.4952L7.34648 30.9474L55.4306 5.20493ZM4.27875 33.8945L37.3631 51.2898L18.7499 98.7649L4.27875 33.8945Z" fill="url(#paint0_linear_7048_748)"/>
<path d="M76.2844 34.8078V57.6549H106.359V62.9746H76.2729V87.6486H70.126V29.5054H109.995V34.8136L76.2844 34.8078Z" fill="#21959C"/>
<path d="M52.8115 32.0676C56.3837 33.5994 59.4306 36.1411 61.5781 39.3807C63.6309 42.5365 64.6554 46.2745 64.6516 50.5946C64.7425 54.5396 63.6739 58.4247 61.5781 61.7682C59.4465 65.022 56.3948 67.5678 52.8115 69.0814C49.02 70.7665 44.5486 71.6091 39.3974 71.6091H27.6722V87.6486H14.2236V29.5054H39.3974C44.5448 29.5016 49.0161 30.3556 52.8115 32.0676ZM47.871 58.0226C49.9736 56.28 51.0249 53.8021 51.0249 50.5888C51.0249 47.3756 49.9736 44.8747 47.871 43.0861C45.7684 41.3435 42.7045 40.4722 38.6793 40.4722H27.6837V60.6595H38.6506C42.6911 60.6595 45.755 59.7825 47.8423 58.0284L47.871 58.0226Z" fill="#21959C"/>
<path d="M18.5265 105.969C20.9029 105.969 22.8294 104.043 22.8294 101.666C22.8294 99.2897 20.9029 97.3633 18.5265 97.3633C16.1501 97.3633 14.2236 99.2897 14.2236 101.666C14.2236 104.043 16.1501 105.969 18.5265 105.969Z" fill="#21959C"/>
<path d="M107.697 25.5701C110.073 25.5701 112 23.6436 112 21.2672C112 18.8908 110.073 16.9644 107.697 16.9644C105.321 16.9644 103.394 18.8908 103.394 21.2672C103.394 23.6436 105.321 25.5701 107.697 25.5701Z" fill="#21959C"/>
<path d="M107.697 90.5614C109.477 90.5614 110.92 89.1185 110.92 87.3386C110.92 85.5586 109.477 84.1157 107.697 84.1157C105.917 84.1157 104.474 85.5586 104.474 87.3386C104.474 89.1185 105.917 90.5614 107.697 90.5614Z" fill="#21959C"/>
<path d="M2.83123 34.3885C3.98929 34.3885 4.92809 33.4497 4.92809 32.2917C4.92809 31.1336 3.98929 30.1948 2.83123 30.1948C1.67317 30.1948 0.734375 31.1336 0.734375 32.2917C0.734375 33.4497 1.67317 34.3885 2.83123 34.3885Z" fill="#21959C"/>
<path d="M57.0623 6.73292C58.9215 6.73292 60.4287 5.2257 60.4287 3.36646C60.4287 1.50722 58.9215 0 57.0623 0C55.203 0 53.6958 1.50722 53.6958 3.36646C53.6958 5.2257 55.203 6.73292 57.0623 6.73292Z" fill="#21959C"/>
<defs>
<linearGradient id="paint0_linear_7048_748" x1="1.23975" y1="53.4901" x2="109.995" y2="53.4901" gradientUnits="userSpaceOnUse">
<stop stop-color="#AFDBDE"/>
<stop offset="1" stop-color="#C7E5E7"/>
</linearGradient>
</defs>
</svg>
