<svg width="432" height="104" viewBox="0 0 432 104" fill="none" xmlns="http://www.w3.org/2000/svg">
<path d="M383.245 102.016H382.917L249.249 92.4545L84.8609 99.8789L84.7263 99.8035L2.69189 50.4382L3.97894 49.8935L114.985 2.51416H115.094L242.957 9.86324L391.624 5.67334L391.842 5.93311L429.781 50.589L429.368 51.0499L383.245 102.016ZM249.3 91.0215L382.631 100.558L427.871 50.5387L390.967 7.10628L242.915 11.2543L115.245 3.90521L5.82959 50.6561L85.2226 98.4209L249.3 91.0215Z" fill="url(#paint0_linear_7048_735)"/>
<path d="M383.842 102.585L382.614 101.747L337.004 72.2252L250.595 92.0434L251.327 92.5211L249.922 92.2864V92.8395L249.132 92.3283L248.896 92.454V92.2781L246.213 92.8982L247.735 92.0602L133.188 72.7867L83.9944 100.415L84.4655 98.9567L94.6945 66.3594L0.630859 50.5551L105.151 33.0246L114.791 2.24561L115.464 2.68135L150.037 25.4995L241.334 10.1896L240.021 9.28463L242.385 9.80417V9.65334L242.831 9.89635L243.445 9.56116V9.98853L245.363 9.6701L244.522 10.1561L366.572 26.8151H366.631L366.985 26.857L391.295 5.59752L392.137 6.49416L368.743 26.8989H369.5L368.659 27.3682L428.931 49.9936L429.293 50.111L429.999 50.3707L430.941 50.5802L430.706 50.6305L430.899 50.7059L428.998 51.1752L375.481 63.4013L383.842 102.585ZM338.627 71.8565L382.034 99.9875L374.286 63.6862L338.627 71.8565ZM95.8975 66.5605L86.0722 97.8841L131.27 72.5018L95.8975 66.5605ZM243.596 11.7315L249.821 90.7697L312.685 56.4796L243.596 11.7315ZM134.837 71.8817L246.591 90.6608L179.867 46.6166L134.837 71.8817ZM181.044 45.9546L248.593 90.5351L242.377 11.522L181.044 45.9546ZM313.837 57.2254L253.422 90.158L335.582 71.3118L313.837 57.2254ZM96.2592 65.3622L132.911 71.5632L178.697 45.8708L149.735 26.7649L106.076 34.0888L96.2592 65.3622ZM315.04 56.5718L337.223 70.9431L374.034 62.5047L368.869 38.2703L354.358 35.1447L315.04 56.5718ZM7.89888 50.5551L95.0563 65.1946L104.747 34.357L7.89888 50.5551ZM370.131 38.5469L375.178 62.2281L426.02 50.5802L370.131 38.5469ZM245.977 11.8153L313.888 55.826L352.583 34.7508L245.977 11.8153ZM369.887 37.248L420.872 48.2255L368.002 28.4241L369.887 37.248ZM151.518 26.4716L179.917 45.2507L239.601 11.7315L151.518 26.4716ZM355.982 34.2648L368.6 36.9715L366.766 28.3822L355.982 34.2648ZM258.444 13.265L354.148 33.8793L365.243 27.8207L358.11 26.857L258.444 13.265ZM115.439 4.13106L106.488 32.7983L148.288 25.7928L115.439 4.13106Z" fill="url(#paint1_linear_7048_735)"/>
<path d="M242.898 12.6617C244.078 12.6617 245.035 11.7088 245.035 10.5333C245.035 9.35773 244.078 8.40479 242.898 8.40479C241.718 8.40479 240.762 9.35773 240.762 10.5333C240.762 11.7088 241.718 12.6617 242.898 12.6617Z" fill="#21959C"/>
<path d="M85.0374 102.342C86.8028 102.342 88.234 100.917 88.234 99.158C88.234 97.3993 86.8028 95.9736 85.0374 95.9736C83.272 95.9736 81.8408 97.3993 81.8408 99.158C81.8408 100.917 83.272 102.342 85.0374 102.342Z" fill="#21959C"/>
<path d="M382.926 103.407C384.106 103.407 385.062 102.454 385.062 101.278C385.062 100.103 384.106 99.1499 382.926 99.1499C381.746 99.1499 380.789 100.103 380.789 101.278C380.789 102.454 381.746 103.407 382.926 103.407Z" fill="#21959C"/>
<path d="M428.813 53.7314C430.579 53.7314 432.01 52.3058 432.01 50.5471C432.01 48.7885 430.579 47.3628 428.813 47.3628C427.048 47.3628 425.617 48.7885 425.617 50.5471C425.617 52.3058 427.048 53.7314 428.813 53.7314Z" fill="#21959C"/>
<path d="M391.287 10.131C393.373 10.131 395.064 8.44647 395.064 6.36848C395.064 4.2905 393.373 2.60596 391.287 2.60596C389.201 2.60596 387.51 4.2905 387.51 6.36848C387.51 8.44647 389.201 10.131 391.287 10.131Z" fill="#21959C"/>
<path d="M249.3 95.9737C251.656 95.9737 253.565 94.0715 253.565 91.7251C253.565 89.3787 251.656 87.4766 249.3 87.4766C246.945 87.4766 245.035 89.3787 245.035 91.7251C245.035 94.0715 246.945 95.9737 249.3 95.9737Z" fill="#21959C"/>
<path d="M4.26491 54.7954C6.62036 54.7954 8.52983 52.8933 8.52983 50.5469C8.52983 48.2005 6.62036 46.2983 4.26491 46.2983C1.90947 46.2983 0 48.2005 0 50.5469C0 52.8933 1.90947 54.7954 4.26491 54.7954Z" fill="#21959C"/>
<path d="M115.136 6.36864C116.901 6.36864 118.333 4.94297 118.333 3.18432C118.333 1.42567 116.901 0 115.136 0C113.371 0 111.939 1.42567 111.939 3.18432C111.939 4.94297 113.371 6.36864 115.136 6.36864Z" fill="#21959C"/>
<path d="M58.0433 27.4018C60.7854 28.5677 63.1249 30.5078 64.7729 32.9828C66.3876 35.5472 67.2069 38.5292 67.1283 41.5553C67.1946 44.5668 66.3759 47.5319 64.7729 50.0859C63.1378 52.5744 60.7947 54.5205 58.0433 55.6752C54.7888 57.0342 51.2832 57.6938 47.7553 57.611H38.6956V69.8622H28.416V25.4493H47.7217C51.2634 25.3502 54.7846 26.0163 58.0433 27.4018ZM54.2579 47.2368C55.0719 46.5386 55.7132 45.6627 56.132 44.6773C56.5507 43.6919 56.7356 42.6235 56.6721 41.5553C56.7396 40.478 56.5569 39.3998 56.1382 38.4042C55.7195 37.4087 55.0761 36.5228 54.2579 35.8151C52.6428 34.48 50.2846 33.8124 47.1833 33.8124H38.7713V49.2396H47.1833C50.2874 49.2396 52.6428 48.5692 54.2579 47.2284V47.2368ZM90.9597 60.0914H84.7768V69.8622H74.6824V33.3599H91.3803C96.4275 33.3599 100.44 34.5554 103.418 36.9464C106.396 39.3374 107.882 42.6279 107.876 46.8178C107.935 49.2756 107.262 51.6957 105.942 53.773C104.582 55.7977 102.67 57.3937 100.432 58.3735L108.583 69.8622H97.7398L90.9597 60.0914ZM96.0069 42.6363C94.8236 41.6642 93.0599 41.1782 90.7157 41.1782H84.8273V52.4742H90.7157C93.0543 52.4742 94.818 51.9881 96.0069 51.0161C96.6083 50.5019 97.0822 49.8562 97.3916 49.1294C97.701 48.4025 97.8374 47.6143 97.7903 46.8262C97.8361 46.0383 97.6991 45.2504 97.3898 44.5238C97.0805 43.7971 96.6073 43.1513 96.0069 42.6363ZM123.069 68.1276C120.041 66.5851 117.496 64.2464 115.708 61.3651C113.957 58.4198 113.032 55.0595 113.032 51.6362C113.032 48.2129 113.957 44.8526 115.708 41.9072C117.49 39.0128 120.036 36.6619 123.069 35.1112C126.35 33.5067 129.957 32.6725 133.613 32.6725C137.269 32.6725 140.876 33.5067 144.158 35.1112C147.213 36.6609 149.773 39.0314 151.546 41.9548C153.32 44.8781 154.237 48.2375 154.193 51.6529C154.245 55.075 153.317 58.4411 151.518 61.3567C149.733 64.2422 147.187 66.5842 144.158 68.1276C140.876 69.7321 137.269 70.5664 133.613 70.5664C129.957 70.5664 126.35 69.7321 123.069 68.1276ZM138.934 60.9796C140.511 60.0716 141.802 58.7422 142.66 57.1417C143.571 55.4534 144.031 53.5607 143.998 51.6446C144.03 49.7098 143.57 47.7983 142.66 46.0888C141.799 44.4901 140.509 43.1614 138.934 42.2508C137.311 41.3365 135.478 40.8561 133.613 40.8561C131.748 40.8561 129.916 41.3365 128.292 42.2508C126.703 43.1647 125.391 44.4911 124.499 46.0888C123.572 47.7932 123.103 49.7067 123.136 51.6446C123.102 53.5612 123.572 55.4534 124.499 57.1333C125.38 58.7281 126.68 60.0546 128.259 60.9713C129.881 61.8895 131.714 62.3723 133.579 62.3723C135.445 62.3723 137.278 61.8895 138.9 60.9713L138.934 60.9796ZM161.335 33.3263H178.605C182.371 33.2482 186.106 34.0068 189.541 35.547C192.549 36.9018 195.089 39.1115 196.842 41.8989C198.612 44.8259 199.508 48.1949 199.425 51.611C199.504 55.0135 198.609 58.368 196.842 61.2813C195.089 64.0651 192.553 66.274 189.549 67.6332C186.114 69.1726 182.379 69.9311 178.613 69.8538H161.335V33.3263ZM178.277 62.0104C181.675 62.0104 184.353 61.1109 186.31 59.3121C188.268 57.5132 189.255 54.9546 189.271 51.6362C189.271 48.3345 188.296 45.7731 186.344 43.9519C184.392 42.1307 181.715 41.2201 178.311 41.2201H171.438V62.0104H178.277ZM210.773 66.2003C207.722 63.2841 206.194 59.2646 206.188 54.1417V33.3599H216.283V53.7982C216.283 56.6305 216.911 58.7674 218.167 60.2087C219.42 61.65 221.254 62.3623 223.677 62.3623C224.684 62.4312 225.694 62.2734 226.632 61.9006C227.57 61.5278 228.411 60.9495 229.094 60.2087C230.328 58.7674 230.942 56.6305 230.936 53.7982V33.3599H240.879V54.1166C240.879 59.2394 239.351 63.259 236.295 66.1751C233.239 69.0913 228.99 70.5494 223.551 70.5494C218.105 70.5494 213.854 69.0941 210.798 66.1835L210.773 66.2003ZM257.611 68.136C254.595 66.5895 252.062 64.251 250.284 61.3735C248.528 58.4328 247.601 55.0746 247.601 51.6529C247.601 48.2313 248.528 44.8731 250.284 41.9324C252.061 39.0478 254.594 36.7009 257.611 35.1448C260.837 33.4788 264.426 32.6325 268.059 32.6811C271.18 32.611 274.286 33.1461 277.203 34.2565C279.822 35.3516 282.114 37.1005 283.857 39.3347L277.363 45.2005C276.314 43.8345 274.963 42.7283 273.415 41.9681C271.867 41.2079 270.163 40.8142 268.437 40.8179C267.006 40.765 265.58 41.0091 264.249 41.5346C262.918 42.0601 261.711 42.8555 260.705 43.8704C259.698 44.8853 258.915 46.0975 258.404 47.4301C257.893 48.7626 257.666 50.1864 257.737 51.611C257.686 53.5818 258.153 55.5317 259.092 57.2674C259.974 58.8666 261.3 60.1787 262.911 61.0467C264.606 61.944 266.501 62.4022 268.421 62.3791C270.147 62.3846 271.851 61.9918 273.4 61.2315C274.948 60.4711 276.299 59.3638 277.346 57.9964L283.848 63.8623C282.096 66.0783 279.802 67.8095 277.186 68.8902C274.273 70.0199 271.167 70.5694 268.042 70.5075C264.412 70.5556 260.825 69.7184 257.594 68.069L257.611 68.136ZM297.047 41.2033H285.514V33.3599H318.649V41.1698H307.116V69.8622H297.022L297.047 41.2033ZM330.889 29.5219V46.9267H353.954V50.9909H330.88V69.8455H326.169V25.4326H356.747V29.4968L330.889 29.5219ZM365.428 34.0303H370.005V69.8957H365.428V34.0303ZM389.638 37.8431H376.961V33.9967H406.908V37.8095H394.215V69.8622H389.638V37.8431ZM364.798 26.6058C364.532 27.1792 364.444 27.8183 364.544 28.4418C364.645 29.0653 364.929 29.645 365.361 30.1073C365.792 30.5696 366.352 30.8935 366.969 31.038C367.586 31.1825 368.233 31.141 368.826 30.9188C369.419 30.6966 369.933 30.3037 370.301 29.79C370.67 29.2763 370.877 28.6651 370.896 28.0339C370.915 27.4028 370.745 26.7803 370.408 26.2455C370.071 25.7106 369.582 25.2877 369.004 25.0304C368.235 24.6889 367.363 24.6627 366.576 24.9576C365.788 25.2525 365.15 25.8447 364.798 26.6058Z" fill="#21959C"/>
<defs>
<linearGradient id="paint0_linear_7048_735" x1="2.69189" y1="52.2482" x2="429.764" y2="52.2482" gradientUnits="userSpaceOnUse">
<stop stop-color="#AFDBDE"/>
<stop offset="1" stop-color="#C7E5E7"/>
</linearGradient>
<linearGradient id="paint1_linear_7048_735" x1="323.364" y1="53844.5" x2="220427" y2="53844.5" gradientUnits="userSpaceOnUse">
<stop stop-color="#AFDBDE"/>
<stop offset="1" stop-color="#C7E5E7"/>
</linearGradient>
</defs>
</svg>
